<svg width="15" height="15" viewBox="0 0 15 15" fill="none" xmlns="http://www.w3.org/2000/svg">
<path d="M0 3.125C0 2.2962 0.32924 1.50134 0.915291 0.915291C1.50134 0.32924 2.2962 0 3.125 0H11.875C12.7038 0 13.4987 0.32924 14.0847 0.915291C14.6708 1.50134 15 2.2962 15 3.125V7.5H10.625C9.7962 7.5 9.00134 7.82924 8.41529 8.41529C7.82924 9.00134 7.5 9.7962 7.5 10.625V15H3.125C2.2962 15 1.50134 14.6708 0.915291 14.0847C0.32924 13.4987 0 12.7038 0 11.875V3.125ZM8.75 14.8238C9.19209 14.6687 9.59366 14.4162 9.925 14.085L14.085 9.92375C14.4156 9.59265 14.6676 9.19153 14.8225 8.75H10.625C10.1277 8.75 9.65081 8.94754 9.29917 9.29917C8.94754 9.65081 8.75 10.1277 8.75 10.625V14.8238Z" fill="url(#paint0_linear_144_9)"/>
<defs>
<linearGradient id="paint0_linear_144_9" x1="2.78501" y1="2.78501" x2="14.1601" y2="14.1597" gradientUnits="userSpaceOnUse">
<stop stop-color="#333333"/>
<stop offset="1"/>
</linearGradient>
</defs>
</svg>
