<svg width="92" height="20" viewBox="0 0 92 20" fill="none" xmlns="http://www.w3.org/2000/svg">
<path d="M5 5.125C5 4.2962 5.32924 3.50134 5.91529 2.91529C6.50134 2.32924 7.2962 2 8.125 2H16.875C17.7038 2 18.4987 2.32924 19.0847 2.91529C19.6708 3.50134 20 4.2962 20 5.125V9.5H15.625C14.7962 9.5 14.0013 9.82924 13.4153 10.4153C12.8292 11.0013 12.5 11.7962 12.5 12.625V17H8.125C7.2962 17 6.50134 16.6708 5.91529 16.0847C5.32924 15.4987 5 14.7038 5 13.875V5.125ZM13.75 16.8238C14.1921 16.6687 14.5937 16.4162 14.925 16.085L19.085 11.9238C19.4156 11.5926 19.6676 11.1915 19.8225 10.75H15.625C15.1277 10.75 14.6508 10.9475 14.2992 11.2992C13.9475 11.6508 13.75 12.1277 13.75 12.625V16.8238Z" fill="url(#paint0_linear_144_13)"/>
<path d="M28.2273 16H23.75V4.36364H28.1818C29.3788 4.36364 30.4129 4.59659 31.2841 5.0625C32.1591 5.52462 32.8333 6.19129 33.3068 7.0625C33.7841 7.92992 34.0227 8.9697 34.0227 10.1818C34.0227 11.3939 33.786 12.4356 33.3125 13.3068C32.839 14.1742 32.1686 14.8409 31.3011 15.3068C30.4337 15.7689 29.4091 16 28.2273 16ZM26.9091 13.3182H28.1136C28.6894 13.3182 29.1799 13.2254 29.5852 13.0398C29.9943 12.8542 30.3049 12.5341 30.517 12.0795C30.733 11.625 30.8409 10.9924 30.8409 10.1818C30.8409 9.37121 30.7311 8.73864 30.5114 8.28409C30.2955 7.82954 29.9773 7.50947 29.5568 7.32386C29.1402 7.13826 28.6288 7.04545 28.0227 7.04545H26.9091V13.3182ZM35.5298 16V7.27273H38.6662V16H35.5298ZM37.098 6.36364C36.6738 6.36364 36.3101 6.22348 36.0071 5.94318C35.7041 5.66288 35.5526 5.32576 35.5526 4.93182C35.5526 4.53788 35.7041 4.20076 36.0071 3.92045C36.3101 3.64015 36.6738 3.5 37.098 3.5C37.526 3.5 37.8897 3.64015 38.1889 3.92045C38.492 4.20076 38.6435 4.53788 38.6435 4.93182C38.6435 5.32576 38.492 5.66288 38.1889 5.94318C37.8897 6.22348 37.526 6.36364 37.098 6.36364ZM44.4688 19.4545C43.5938 19.4545 42.8438 19.3295 42.2188 19.0795C41.5975 18.8333 41.1146 18.4924 40.7699 18.0568C40.429 17.625 40.2377 17.1288 40.196 16.5682H43.2188C43.2491 16.7538 43.3248 16.9034 43.446 17.017C43.5672 17.1307 43.7225 17.2121 43.9119 17.2614C44.1051 17.3144 44.321 17.3409 44.5597 17.3409C44.965 17.3409 45.3002 17.2424 45.5653 17.0455C45.8343 16.8485 45.9688 16.4924 45.9688 15.9773V14.5H45.8778C45.7642 14.7955 45.59 15.0473 45.3551 15.2557C45.1203 15.4602 44.8381 15.6174 44.5085 15.7273C44.179 15.8333 43.8172 15.8864 43.4233 15.8864C42.8021 15.8864 42.2301 15.7424 41.7074 15.4545C41.1884 15.1667 40.7718 14.7102 40.4574 14.0852C40.1468 13.4602 39.9915 12.6439 39.9915 11.6364C39.9915 10.5833 40.1544 9.72727 40.4801 9.06818C40.8097 8.40909 41.2339 7.92614 41.7528 7.61932C42.2756 7.3125 42.8248 7.15909 43.4006 7.15909C43.8324 7.15909 44.2112 7.23485 44.5369 7.38636C44.8627 7.53409 45.1354 7.73295 45.3551 7.98295C45.5748 8.22917 45.7415 8.5 45.8551 8.79545H45.9233V7.27273H49.0597V15.9773C49.0597 16.7159 48.8684 17.3428 48.4858 17.858C48.107 18.3769 47.5729 18.7727 46.8835 19.0455C46.1941 19.3182 45.3892 19.4545 44.4688 19.4545ZM44.5824 13.6591C44.8703 13.6591 45.1165 13.5795 45.321 13.4205C45.5294 13.2576 45.6884 13.0265 45.7983 12.7273C45.9119 12.4242 45.9688 12.0606 45.9688 11.6364C45.9688 11.2045 45.9119 10.8352 45.7983 10.5284C45.6884 10.2178 45.5294 9.98106 45.321 9.81818C45.1165 9.65151 44.8703 9.56818 44.5824 9.56818C44.2945 9.56818 44.0483 9.65151 43.8438 9.81818C43.643 9.98106 43.4877 10.2178 43.3778 10.5284C43.2718 10.8352 43.2188 11.2045 43.2188 11.6364C43.2188 12.0682 43.2718 12.4356 43.3778 12.7386C43.4877 13.0379 43.643 13.267 43.8438 13.4261C44.0483 13.5814 44.2945 13.6591 44.5824 13.6591ZM50.6548 16V7.27273H53.7912V16H50.6548ZM52.223 6.36364C51.7988 6.36364 51.4351 6.22348 51.1321 5.94318C50.8291 5.66288 50.6776 5.32576 50.6776 4.93182C50.6776 4.53788 50.8291 4.20076 51.1321 3.92045C51.4351 3.64015 51.7988 3.5 52.223 3.5C52.651 3.5 53.0147 3.64015 53.3139 3.92045C53.617 4.20076 53.7685 4.53788 53.7685 4.93182C53.7685 5.32576 53.617 5.66288 53.3139 5.94318C53.0147 6.22348 52.651 6.36364 52.223 6.36364ZM58.5256 11.0909V16H55.3892V7.27273H58.3665V8.93182H58.4574C58.6468 8.37879 58.9801 7.94508 59.4574 7.63068C59.9384 7.31629 60.4991 7.15909 61.1392 7.15909C61.7566 7.15909 62.2926 7.30114 62.7472 7.58523C63.2055 7.86553 63.5597 8.25189 63.8097 8.74432C64.0634 9.23674 64.1884 9.79924 64.1847 10.4318V16H61.0483V11.0909C61.0521 10.6591 60.9422 10.3201 60.7188 10.0739C60.4991 9.82765 60.1922 9.70455 59.7983 9.70455C59.5407 9.70455 59.3153 9.76136 59.1222 9.875C58.9328 9.98485 58.7869 10.1439 58.6847 10.3523C58.5824 10.5568 58.5294 10.803 58.5256 11.0909ZM69.9375 16.1591C68.9905 16.1591 68.1799 15.9716 67.5057 15.5966C66.8314 15.2178 66.3144 14.6913 65.9545 14.017C65.5947 13.339 65.4148 12.553 65.4148 11.6591C65.4148 10.7652 65.5947 9.98106 65.9545 9.30682C66.3144 8.62879 66.8314 8.10227 67.5057 7.72727C68.1799 7.34848 68.9905 7.15909 69.9375 7.15909C70.8845 7.15909 71.6951 7.34848 72.3693 7.72727C73.0436 8.10227 73.5606 8.62879 73.9205 9.30682C74.2803 9.98106 74.4602 10.7652 74.4602 11.6591C74.4602 12.553 74.2803 13.339 73.9205 14.017C73.5606 14.6913 73.0436 15.2178 72.3693 15.5966C71.6951 15.9716 70.8845 16.1591 69.9375 16.1591ZM69.9602 13.8409C70.2254 13.8409 70.4545 13.7519 70.6477 13.5739C70.8409 13.3958 70.9905 13.142 71.0966 12.8125C71.2027 12.483 71.2557 12.0909 71.2557 11.6364C71.2557 11.178 71.2027 10.786 71.0966 10.4602C70.9905 10.1307 70.8409 9.87689 70.6477 9.69886C70.4545 9.52083 70.2254 9.43182 69.9602 9.43182C69.6799 9.43182 69.4394 9.52083 69.2386 9.69886C69.0379 9.87689 68.8845 10.1307 68.7784 10.4602C68.6723 10.786 68.6193 11.178 68.6193 11.6364C68.6193 12.0909 68.6723 12.483 68.7784 12.8125C68.8845 13.142 69.0379 13.3958 69.2386 13.5739C69.4394 13.7519 69.6799 13.8409 69.9602 13.8409ZM80.9375 7.27273V9.54545H75.1875V7.27273H80.9375ZM76.3011 5.18182H79.4375V13.1932C79.4375 13.3144 79.4583 13.4167 79.5 13.5C79.5417 13.5795 79.6061 13.6402 79.6932 13.6818C79.7803 13.7197 79.892 13.7386 80.0284 13.7386C80.1231 13.7386 80.233 13.7273 80.358 13.7045C80.4867 13.6818 80.5814 13.6629 80.642 13.6477L81.0966 15.8523C80.9564 15.8939 80.7557 15.9451 80.4943 16.0057C80.2367 16.0663 79.9299 16.1061 79.5739 16.125C78.8542 16.1629 78.25 16.089 77.7614 15.9034C77.2727 15.714 76.9053 15.4167 76.6591 15.0114C76.4129 14.6061 76.2936 14.0985 76.3011 13.4886V5.18182ZM86.3054 16.1591C85.3736 16.1591 84.5705 15.9811 83.8963 15.625C83.2259 15.2652 82.7088 14.75 82.3452 14.0795C81.9853 13.4053 81.8054 12.5985 81.8054 11.6591C81.8054 10.7576 81.9872 9.9697 82.3509 9.29545C82.7145 8.62121 83.2277 8.09659 83.8906 7.72159C84.5535 7.34659 85.3357 7.15909 86.2372 7.15909C86.8963 7.15909 87.4929 7.26136 88.027 7.46591C88.5611 7.67045 89.0175 7.9678 89.3963 8.35795C89.7751 8.74432 90.0668 9.21402 90.2713 9.76705C90.4759 10.3201 90.5781 10.9432 90.5781 11.6364V12.3636H82.7827V10.6364H87.6918C87.688 10.3864 87.6236 10.1667 87.4986 9.97727C87.3774 9.78409 87.2126 9.63447 87.0043 9.52841C86.7997 9.41856 86.5668 9.36364 86.3054 9.36364C86.0516 9.36364 85.8187 9.41856 85.6065 9.52841C85.3944 9.63447 85.224 9.7822 85.0952 9.97159C84.9702 10.161 84.9039 10.3826 84.8963 10.6364V12.5C84.8963 12.7803 84.955 13.0303 85.0724 13.25C85.1899 13.4697 85.3584 13.642 85.5781 13.767C85.7978 13.892 86.063 13.9545 86.3736 13.9545C86.5895 13.9545 86.7865 13.9242 86.9645 13.8636C87.1463 13.803 87.3016 13.7159 87.4304 13.6023C87.5592 13.4848 87.6539 13.3447 87.7145 13.1818H90.5781C90.4796 13.7879 90.2467 14.3144 89.8793 14.7614C89.5118 15.2045 89.0251 15.5492 88.419 15.7955C87.8168 16.0379 87.1122 16.1591 86.3054 16.1591Z" fill="url(#paint1_linear_144_13)"/>
<defs>
<linearGradient id="paint0_linear_144_13" x1="7.78501" y1="4.78501" x2="19.1601" y2="16.1597" gradientUnits="userSpaceOnUse">
<stop stop-color="#333333"/>
<stop offset="1"/>
</linearGradient>
<linearGradient id="paint1_linear_144_13" x1="35.8111" y1="4.52768" x2="43.1871" y2="31.3134" gradientUnits="userSpaceOnUse">
<stop stop-color="#333333"/>
<stop offset="1"/>
</linearGradient>
</defs>
</svg>
